<svg width="158" height="158" viewBox="0 0 158 158" fill="none" xmlns="http://www.w3.org/2000/svg">
<path d="M106.797 23.0419C101.403 23.0419 96.0831 24.306 91.2582 26.7341C86.4339 29.1623 82.237 32.6878 79.0007 37.0314C74.6254 31.1591 68.5253 26.8214 61.5643 24.6327C54.6035 22.444 47.1351 22.5154 40.2169 24.8366C33.2987 27.1578 27.2814 31.6113 23.0174 37.5661C18.7535 43.5209 16.459 50.6752 16.459 58.0156C16.459 99.926 74.31 132.976 76.7419 134.375C77.4312 134.765 78.21 134.966 79.0007 134.958C79.792 134.972 80.5721 134.77 81.2594 134.375C91.9125 128.106 101.905 120.762 111.082 112.458C131.293 94.155 141.542 75.8521 141.542 58.0156C141.542 48.74 137.882 39.8443 131.366 33.2855C124.85 26.7266 116.012 23.0419 106.797 23.0419Z" fill="black"/>
</svg>
