<svg width="183" height="183" viewBox="0 0 183 183" fill="none" xmlns="http://www.w3.org/2000/svg">
<path fill-rule="evenodd" clip-rule="evenodd" d="M53.3799 61.0002C53.3799 39.9379 70.4425 22.8752 91.5049 22.8752C112.567 22.8752 129.63 39.9379 129.63 61.0002V68.6252H144.88C156.317 68.6252 160.13 74.1153 160.13 80.8253V153.263C160.13 161.685 153.302 168.513 144.88 168.513H38.1299C29.7075 168.513 22.8799 161.685 22.8799 153.263V80.8253C22.8799 74.1153 26.6924 68.6252 36.9861 68.6252H53.3799V61.0002ZM114.38 61.0002V68.6252H68.6299V61.0002C68.6299 48.3601 78.8649 38.1252 91.5049 38.1252C104.145 38.1252 114.38 48.3601 114.38 61.0002ZM91.5049 91.5002C83.0823 91.5002 75.8282 98.3383 76.2549 106.75C76.537 112.315 79.372 116.668 83.8799 118.81V129.625C83.8799 132.784 85.231 141.063 91.5049 141.063C97.7787 141.063 99.1299 132.784 99.1299 129.625V118.81C103.638 116.668 106.473 112.315 106.755 106.75C107.182 98.3383 99.9275 91.5002 91.5049 91.5002Z" fill="black"/>
</svg>
