<svg width="341" height="341" viewBox="0 0 341 341" fill="none" xmlns="http://www.w3.org/2000/svg">
<path d="M105.142 99.4585H65.359C63.098 99.4585 60.9296 100.357 59.3309 101.955C57.7322 103.554 56.834 105.723 56.834 107.983V233.017C56.834 234.136 57.0545 235.245 57.4829 236.279C57.9113 237.314 58.5393 238.253 59.3309 239.045C60.1225 239.837 61.0623 240.464 62.0966 240.893C63.1309 241.321 64.2395 241.542 65.359 241.542H105.142C106.262 241.542 107.37 241.321 108.405 240.893C109.439 240.464 110.379 239.837 111.17 239.045C111.962 238.253 112.59 237.314 113.018 236.279C113.447 235.245 113.667 234.136 113.667 233.017V107.983C113.667 105.723 112.769 103.554 111.17 101.955C109.572 100.357 107.403 99.4585 105.142 99.4585ZM275.642 99.4585H235.859C233.598 99.4585 231.43 100.357 229.831 101.955C228.232 103.554 227.334 105.723 227.334 107.983V233.017C227.334 234.136 227.554 235.245 227.983 236.279C228.411 237.314 229.039 238.253 229.831 239.045C230.623 239.837 231.562 240.464 232.597 240.893C233.631 241.321 234.739 241.542 235.859 241.542H275.642C276.762 241.542 277.87 241.321 278.905 240.893C279.939 240.464 280.879 239.837 281.67 239.045C282.462 238.253 283.09 237.314 283.518 236.279C283.947 235.245 284.167 234.136 284.167 233.017V107.983C284.167 105.723 283.269 103.554 281.67 101.955C280.072 100.357 277.903 99.4585 275.642 99.4585Z" stroke="black" stroke-width="21.3125" stroke-linecap="round" stroke-linejoin="round"/>
<path d="M113.667 170.5H227.334M14.209 204.6V136.4C14.209 134.139 15.1072 131.971 16.7059 130.372C18.3046 128.773 20.473 127.875 22.734 127.875H48.309C50.57 127.875 52.7383 128.773 54.3371 130.372C55.9358 131.971 56.834 134.139 56.834 136.4V204.6C56.834 206.861 55.9358 209.03 54.3371 210.628C52.7383 212.227 50.57 213.125 48.309 213.125H22.734C20.473 213.125 18.3046 212.227 16.7059 210.628C15.1072 209.03 14.209 206.861 14.209 204.6ZM326.792 204.6V136.4C326.792 134.139 325.894 131.971 324.295 130.372C322.697 128.773 320.528 127.875 318.267 127.875H292.692C290.431 127.875 288.263 128.773 286.664 130.372C285.065 131.971 284.167 134.139 284.167 136.4V204.6C284.167 206.861 285.065 209.03 286.664 210.628C288.263 212.227 290.431 213.125 292.692 213.125H318.267C320.528 213.125 322.697 212.227 324.295 210.628C325.894 209.03 326.792 206.861 326.792 204.6Z" stroke="black" stroke-width="21.3125" stroke-linecap="round" stroke-linejoin="round"/>
</svg>
