<svg width="208" height="208" viewBox="0 0 208 208" fill="none" xmlns="http://www.w3.org/2000/svg">
<path d="M12.5938 131.423C12.5938 134.79 15.3238 137.517 18.6875 137.517C20.2443 137.517 21.645 136.916 22.7208 135.96C24.18 136.945 25.9383 137.517 27.8265 137.517C29.7148 137.517 31.473 136.942 32.9323 135.96C34.008 136.919 35.412 137.517 36.9655 137.517C38.5817 137.517 40.1316 136.875 41.2744 135.732C42.4172 134.59 43.0593 133.04 43.0593 131.423C43.0593 129.807 42.4172 128.257 41.2744 127.115C40.1316 125.972 38.5817 125.33 36.9655 125.33C36.7803 125.33 36.6048 125.369 36.4228 125.385C35.804 123.595 34.6439 122.041 33.1032 120.94C31.5625 119.838 29.7173 119.243 27.8233 119.236C26.3973 119.239 24.992 119.577 23.7207 120.223C22.4494 120.869 21.3476 121.804 20.5043 122.954C19.9905 122.53 19.3473 122.293 18.681 122.284C18.2805 122.284 17.8839 122.363 17.5139 122.516C17.1438 122.669 16.8076 122.893 16.5244 123.176C16.2413 123.46 16.0167 123.796 15.8637 124.166C15.7106 124.536 15.6321 124.933 15.6325 125.333C15.6325 125.603 15.7202 125.843 15.7885 126.093C14.8257 126.612 14.0207 127.381 13.4584 128.319C12.8961 129.257 12.5974 130.33 12.5938 131.423ZM164.938 62.1562C180.284 62.1562 192.767 49.673 192.767 34.3265C192.767 18.9832 180.284 6.5 164.938 6.5C149.591 6.5 137.108 18.9832 137.108 34.3297C137.111 49.673 149.591 62.1562 164.938 62.1562ZM164.938 13C167.739 13 170.512 13.5517 173.1 14.6236C175.688 15.6955 178.039 17.2667 180.02 19.2473C182.001 21.228 183.572 23.5794 184.644 26.1672C185.716 28.7551 186.267 31.5287 186.267 34.3297C186.267 37.1308 185.716 39.9044 184.644 42.4923C183.572 45.0801 182.001 47.4315 180.02 49.4122C178.039 51.3928 175.688 52.9639 173.1 54.0359C170.512 55.1078 167.739 55.6595 164.938 55.6595C159.281 55.6595 153.855 53.4123 149.855 49.4122C145.855 45.4121 143.608 39.9867 143.608 34.3297C143.608 28.6727 145.855 23.2474 149.855 19.2473C153.855 15.2472 159.281 13 164.938 13ZM36.9688 31.6875H56.654C57.7753 33.5452 59.3569 35.0821 61.246 36.1496C63.1351 37.2171 65.2677 37.7791 67.4375 37.7812H79.625C86.5703 37.7812 92.2188 32.1327 92.2188 25.1875C92.2188 18.2422 86.5703 12.5937 79.625 12.5937H78.221C77.0997 10.7361 75.5181 9.19916 73.629 8.13164C71.7399 7.06412 69.6073 6.50213 67.4375 6.5H36.9688C30.0235 6.5 24.375 12.1485 24.375 19.0937C24.375 26.039 30.0235 31.6875 36.9688 31.6875ZM36.9688 13H67.4375C70.8013 13 73.5313 15.73 73.5313 19.0937H79.625C81.2067 19.1454 82.7064 19.8101 83.807 20.9472C84.9076 22.0844 85.523 23.6049 85.523 25.1875C85.523 26.7701 84.9076 28.2906 83.807 29.4278C82.7064 30.5649 81.2067 31.2296 79.625 31.2812H67.4375C65.8213 31.2812 64.2714 30.6392 63.1286 29.4964C61.9858 28.3536 61.3438 26.8037 61.3438 25.1875H36.9688C35.3526 25.1875 33.8026 24.5455 32.6598 23.4027C31.517 22.2599 30.875 20.7099 30.875 19.0937C30.875 17.4776 31.517 15.9276 32.6598 14.7848C33.8026 13.642 35.3526 13 36.9688 13ZM110.094 46.9235H122.281C129.227 46.9235 134.875 41.275 134.875 34.3297C134.875 27.3845 129.227 21.736 122.281 21.736H110.094C103.149 21.736 97.5 27.3845 97.5 34.3297C97.5 41.275 103.149 46.9235 110.094 46.9235ZM110.094 28.236H122.281C123.863 28.2877 125.363 28.9523 126.463 30.0895C127.564 31.2266 128.179 32.7472 128.179 34.3297C128.179 35.9123 127.564 37.4329 126.463 38.57C125.363 39.7072 123.863 40.3718 122.281 40.4235H110.094C108.478 40.4235 106.928 39.7815 105.785 38.6387C104.642 37.4959 104 35.9459 104 34.3297C104 32.7136 104.642 31.1636 105.785 30.0208C106.928 28.878 108.478 28.236 110.094 28.236Z" fill="black"/>
<path d="M183.219 140.562V124.54C188.432 124.923 194.431 124.878 201.5 124.205V116.961C199.466 117.221 197.401 117.41 195.306 117.53C195.481 116.217 195.227 114.728 194.373 113.126L190.577 105.992C192.452 104.708 192.952 102.394 191.532 99.7228L187.135 91.4548C189.215 90.6781 189.946 88.6728 188.692 86.3198L183.092 75.8028C181.486 72.7771 178.861 72.7771 177.252 75.8028L171.652 86.3198C170.394 88.6761 171.129 90.6781 173.209 91.4548L168.812 99.7228C167.388 102.391 167.895 104.712 169.767 105.992L165.971 113.126C165.812 113.418 165.737 113.701 165.617 113.99C163.528 113.323 161.47 112.559 159.452 111.702L158.844 111.459V97.4771C161.455 96.8089 163.771 95.2915 165.426 93.1635C167.081 91.0355 167.981 88.4177 167.986 85.7218C167.986 82.4895 166.702 79.3896 164.416 77.104C162.131 74.8184 159.031 73.5343 155.798 73.5343H52.2047C49.8387 73.5343 47.6515 74.2363 45.7795 75.4031L27.8687 58.6688C25.4345 56.3938 22.2267 55.2563 19.0157 55.2563C12.0672 55.2531 6.5 62.0878 6.5 62.0878V70.9181C11.2028 65.8903 15.5188 61.7531 19.019 61.7531C20.7188 61.7531 22.2853 62.3446 23.4325 63.4171L41.3953 80.2001C40.5001 81.9026 40.0264 83.7951 40.014 85.7186C40.0185 88.4144 40.9191 91.0322 42.5741 93.1602C44.2291 95.2882 46.5446 96.8057 49.1562 97.4739V113.974C45.2562 113.22 41.7073 112.206 38.7953 110.896C30.9075 107.347 20.0915 103.928 6.5 104.029V110.835C16.0778 110.276 29.107 113.665 36.1302 116.828C40.0725 118.602 44.616 119.792 49.1562 120.598V152.75H6.5V201.5H55.25V164.937H61.3438V152.75H55.25V121.443C57.4893 121.686 59.683 121.878 61.698 121.985C57.616 128.118 57.2098 138.063 80.5675 152.123C116.448 173.725 81.7147 201.5 81.7147 201.5H133.529C133.529 201.5 148.145 163.693 96.954 145.954C74.8183 138.284 71.318 128.456 71.838 122.112C83.4568 121.836 94.3573 120.107 101.459 117.338C109.639 114.153 117.77 111.296 127.341 111.296H127.676C135.873 111.351 144.459 112.989 152.75 116.035V152.75H146.656V164.937H152.75V201.5H201.5V152.75H158.844V118.505C163.988 120.656 169.689 122.713 177.125 123.857V140.562H183.219ZM24.7812 180.173H12.5938V174.08H24.7812V180.173ZM49.1562 186.267H36.9688V180.173H49.1562V186.267ZM183.219 171.031H195.406V177.125H183.219V171.031ZM171.031 189.312H183.219V195.406H171.031V189.312ZM52.2047 88.7671C51.3962 88.7671 50.6208 88.4459 50.0491 87.8742C49.4774 87.3025 49.1562 86.5271 49.1562 85.7186C49.1562 84.9101 49.4774 84.1347 50.0491 83.563C50.6208 82.9913 51.3962 82.6701 52.2047 82.6701C53.8915 82.6701 55.25 84.0318 55.25 85.7186C55.25 87.4053 53.8882 88.7671 52.2047 88.7671ZM68.6108 115.671C64.1461 115.68 59.6848 115.426 55.25 114.91V97.9093H60.346L78.9003 115.242C75.4774 115.52 72.0449 115.664 68.6108 115.671ZM152.75 109.145C144.755 106.441 136.292 104.855 127.722 104.796H127.345C116.512 104.796 107.49 108.014 99.1055 111.283C95.8782 112.541 91.715 113.539 87.0772 114.273C86.5258 113.578 85.9275 112.921 85.2865 112.307L69.8718 97.9061H152.75V109.145ZM155.798 88.7671C154.99 88.7671 154.215 88.4459 153.643 87.8742C153.071 87.3025 152.75 86.5271 152.75 85.7186C152.75 84.9101 153.071 84.1347 153.643 83.563C154.215 82.9913 154.99 82.6701 155.798 82.6701C156.607 82.6701 157.382 82.9913 157.954 83.563C158.526 84.1347 158.847 84.9101 158.847 85.7186C158.847 86.5271 158.526 87.3025 157.954 87.8742C157.382 88.4459 156.607 88.7671 155.798 88.7671Z" fill="black"/>
</svg>
