<svg width="130" height="130" viewBox="0 0 130 130" fill="none" xmlns="http://www.w3.org/2000/svg">
<path d="M65.0036 5.41675C67.9952 5.41675 70.4202 7.8419 70.4202 10.8334V21.6667C70.4202 24.6583 67.9952 27.0834 65.0036 27.0834C62.012 27.0834 59.5869 24.6583 59.5869 21.6667V10.8334C59.5869 7.8419 62.012 5.41675 65.0036 5.41675Z" fill="black"/>
<path d="M65.0036 102.916C67.9952 102.916 70.4202 105.341 70.4202 108.333V119.166C70.4202 122.158 67.9952 124.583 65.0036 124.583C62.012 124.583 59.5869 122.158 59.5869 119.166V108.333C59.5869 105.341 62.012 102.916 65.0036 102.916Z" fill="black"/>
<path d="M5.41797 64.9999C5.41797 62.0083 7.84312 59.5833 10.8346 59.5833H21.668C24.6595 59.5833 27.0846 62.0083 27.0846 64.9999C27.0846 67.9915 24.6595 70.4166 21.668 70.4166H10.8346C7.84312 70.4166 5.41797 67.9915 5.41797 64.9999Z" fill="black"/>
<path d="M102.921 64.9999C102.921 62.0083 105.346 59.5833 108.338 59.5833H119.171C122.163 59.5833 124.588 62.0083 124.588 64.9999C124.588 67.9915 122.163 70.4166 119.171 70.4166H108.338C105.346 70.4166 102.921 67.9915 102.921 64.9999Z" fill="black"/>
<path d="M38.1714 91.8282C40.2868 93.944 40.2868 97.3733 38.1714 99.4885L30.5339 107.126C28.4186 109.242 24.989 109.242 22.8736 107.126C20.7583 105.011 20.7583 101.581 22.8736 99.4657L30.5111 91.8282C32.6265 89.713 36.0561 89.713 38.1714 91.8282Z" fill="black"/>
<path d="M107.128 22.8744C109.244 24.9897 109.244 28.4194 107.128 30.5347L99.4908 38.1722C97.3756 40.2875 93.9463 40.2875 91.8305 38.1722C89.7153 36.0569 89.7153 32.6272 91.8305 30.5119L99.468 22.8744C101.584 20.759 105.013 20.759 107.128 22.8744Z" fill="black"/>
<path d="M91.8305 91.8282C93.9463 89.713 97.3756 89.713 99.4908 91.8282L107.128 99.4657C109.244 101.581 109.244 105.011 107.128 107.126C105.013 109.242 101.584 109.242 99.468 107.126L91.8305 99.4885C89.7153 97.3733 89.7153 93.944 91.8305 91.8282Z" fill="black"/>
<path d="M22.8736 22.8744C24.989 20.759 28.4186 20.759 30.5339 22.8744L38.1714 30.5119C40.2868 32.6272 40.2868 36.0569 38.1714 38.1722C36.0561 40.2875 32.6265 40.2875 30.5111 38.1722L22.8736 30.5347C20.7583 28.4194 20.7583 24.9897 22.8736 22.8744Z" fill="black"/>
<path d="M65.0033 37.9164C50.0456 37.9164 37.9199 50.042 37.9199 64.9997C37.9199 79.9573 50.0456 92.0831 65.0033 92.0831C79.9608 92.0831 92.0866 79.9573 92.0866 64.9997C92.0866 50.042 79.9608 37.9164 65.0033 37.9164Z" fill="black"/>
</svg>
