<svg width="166" height="166" viewBox="0 0 166 166" fill="none" xmlns="http://www.w3.org/2000/svg">
<path d="M113.778 86.8311V29.9418C113.778 23.3247 119.138 17.9651 125.755 17.9651H137.732" stroke="black" stroke-width="11.9767" stroke-miterlimit="2" stroke-linecap="round" stroke-linejoin="round"/>
<path d="M35.9297 86.8311V29.9418C35.9297 23.3247 41.2893 17.9651 47.9064 17.9651H59.8831" stroke="black" stroke-width="11.9767" stroke-miterlimit="2" stroke-linecap="round" stroke-linejoin="round"/>
<path d="M35.9297 41.9185H113.778" stroke="black" stroke-width="11.9767" stroke-miterlimit="2" stroke-linecap="round" stroke-linejoin="round"/>
<path d="M35.9297 65.8719H113.778" stroke="black" stroke-width="11.9767" stroke-miterlimit="2" stroke-linecap="round" stroke-linejoin="round"/>
<path d="M17.9648 107.79L25.4503 111.837C30.241 114.426 35.6305 114.426 40.4212 111.837C45.2118 109.247 50.6014 109.247 55.392 111.837C60.1827 114.426 65.5722 114.426 70.3629 111.837C75.1536 109.247 80.5431 109.247 85.3338 111.837C90.1245 114.426 95.514 114.426 100.305 111.837C105.095 109.247 110.485 109.247 115.276 111.837C120.066 114.426 125.456 114.426 130.246 111.837L137.732 107.79" stroke="black" stroke-width="11.9767" stroke-miterlimit="2" stroke-linecap="round" stroke-linejoin="round"/>
<path d="M17.9648 125.755L25.4503 129.802C30.241 132.391 35.6305 132.391 40.4212 129.802C45.2118 127.212 50.6014 127.212 55.392 129.802C60.1827 132.391 65.5722 132.391 70.3629 129.802C75.1536 127.212 80.5431 127.212 85.3338 129.802C90.1245 132.391 95.514 132.391 100.305 129.802C105.095 127.212 110.485 127.212 115.276 129.802C120.066 132.391 125.456 132.391 130.246 129.802L137.732 125.755" stroke="black" stroke-width="11.9767" stroke-miterlimit="2" stroke-linecap="round" stroke-linejoin="round"/>
</svg>
