<svg width="498" height="502" viewBox="0 0 498 502" fill="none" xmlns="http://www.w3.org/2000/svg">
<rect width="498" height="501.763" rx="231.628" fill="white"/>
<path d="M10.7278 247.879C10.7161 290.037 21.7316 331.201 42.6773 367.483L8.72461 491.45L135.589 458.186C170.678 477.287 209.993 487.297 249.944 487.3H250.049C381.937 487.3 489.297 379.979 489.353 248.067C489.379 184.147 464.508 124.04 419.323 78.8195C374.144 33.6025 314.059 8.68738 250.04 8.6582C118.136 8.6582 10.7842 115.973 10.7297 247.879" fill="url(#paint0_linear_149_931)"/>
<path d="M2.16201 247.801C2.1484 291.476 13.5586 334.112 35.2512 371.694L0.0810547 500.104L131.494 465.648C167.703 485.39 208.47 495.798 249.953 495.814H250.06C386.68 495.814 497.896 384.633 497.955 247.999C497.978 181.782 472.213 119.515 425.413 72.674C378.607 25.8389 316.373 0.0272275 250.06 0C113.417 0 2.21647 111.166 2.16201 247.801ZM80.4235 365.221L75.5167 357.432C54.8899 324.635 44.0028 286.734 44.0184 247.817C44.0612 134.249 136.487 41.8525 250.138 41.8525C305.176 41.8758 356.901 63.3311 395.805 102.259C434.707 141.19 456.114 192.942 456.1 247.984C456.05 361.552 363.622 453.96 250.06 453.96H249.979C213.002 453.94 176.737 444.01 145.11 425.244L137.584 420.781L59.6003 441.227L80.4235 365.221Z" fill="url(#paint1_linear_149_931)"/>
<path d="M188.091 144.203C183.451 133.89 178.567 133.682 174.154 133.501C170.541 133.345 166.41 133.357 162.283 133.357C158.152 133.357 151.441 134.911 145.768 141.105C140.089 147.305 124.087 162.288 124.087 192.762C124.087 223.235 146.283 252.687 149.377 256.824C152.475 260.953 192.228 325.49 255.185 350.317C307.509 370.95 318.156 366.846 329.512 365.812C340.87 364.781 366.16 350.833 371.32 336.369C376.484 321.907 376.484 309.511 374.935 306.921C373.387 304.34 369.257 302.79 363.062 299.694C356.868 296.597 326.414 281.611 320.737 279.543C315.058 277.478 310.93 276.447 306.799 282.649C302.668 288.842 290.807 302.79 287.191 306.921C283.58 311.061 279.964 311.576 273.772 308.478C267.574 305.371 247.626 298.838 223.959 277.739C205.546 261.32 193.114 241.046 189.501 234.844C185.887 228.651 189.114 225.295 192.22 222.208C195.003 219.433 198.416 214.975 201.516 211.36C204.604 207.743 205.635 205.162 207.701 201.031C209.768 196.896 208.733 193.279 207.187 190.181C205.635 187.083 193.599 156.45 188.091 144.203Z" fill="white"/>
<defs>
<linearGradient id="paint0_linear_149_931" x1="24040.2" y1="48287.8" x2="24040.2" y2="8.6582" gradientUnits="userSpaceOnUse">
<stop stop-color="#1FAF38"/>
<stop offset="1" stop-color="#60D669"/>
</linearGradient>
<linearGradient id="paint1_linear_149_931" x1="24893.8" y1="50010.4" x2="24893.8" y2="0" gradientUnits="userSpaceOnUse">
<stop stop-color="#F9F9F9"/>
<stop offset="1" stop-color="white"/>
</linearGradient>
</defs>
</svg>
