<svg width="460" height="557" viewBox="0 0 460 557" fill="none" xmlns="http://www.w3.org/2000/svg">
<path fill-rule="evenodd" clip-rule="evenodd" d="M229.807 -1.8952e-05C223.035 -1.83935e-05 216.54 2.69017 211.751 7.47874C206.963 12.2673 204.273 18.762 204.273 25.5341L204.273 76.6022L51.0682 76.6022C37.524 76.6022 24.5346 81.9826 14.9575 91.5598C5.38037 101.137 -4.84317e-06 114.126 -5.41794e-06 127.67L-1.95046e-05 459.613C-2.00793e-05 473.158 5.38036 486.147 14.9575 495.724C24.5346 505.301 37.524 510.682 51.0681 510.682L408.545 510.682C422.089 510.682 435.079 505.301 444.656 495.724C454.233 486.147 459.613 473.158 459.613 459.613L459.613 127.67C459.613 114.126 454.233 101.137 444.656 91.5597C435.079 81.9826 422.089 76.6022 408.545 76.6022L255.341 76.6022L255.341 25.5341C255.341 18.762 252.651 12.2673 247.862 7.47874C243.073 2.69017 236.579 -1.95105e-05 229.807 -1.8952e-05ZM255.341 76.6022L255.341 302.017L302.017 255.341C306.805 250.55 313.3 247.857 320.073 247.854C326.847 247.852 333.344 250.54 338.135 255.328C342.926 260.116 345.619 266.611 345.622 273.384C345.624 280.158 342.936 286.655 338.148 291.446L252.353 377.215C246.368 383.195 238.254 386.554 229.794 386.554C221.334 386.554 213.219 383.195 207.235 377.215L121.466 291.446C119.095 289.074 117.215 286.258 115.932 283.159C114.65 280.06 113.991 276.738 113.992 273.384C113.993 270.031 114.655 266.71 115.939 263.612C117.224 260.514 119.106 257.699 121.478 255.328C123.851 252.957 126.667 251.077 129.766 249.795C132.865 248.512 136.186 247.853 139.54 247.854C142.894 247.855 146.215 248.517 149.313 249.802C152.411 251.086 155.226 252.968 157.596 255.341L204.273 302.017L204.273 76.6022L255.341 76.6022Z" fill="#735E43"/>
</svg>
